<svg width="16.061111111111106in" height="19.79027777777778in" viewBox="0 0 16.061111111111106 19.79027777777778" xmlns="http://www.w3.org/2000/svg" xmlnsXlink="http://www.w3.org/1999/xlink">
  <g transform="translate(0 19.79027777777778)">
    <g data-reactroot="" transform="scale(1, -1)"><g fill="none" stroke="rgb(0,0,0)"><g transform="matrix(1,0,0,1,8.030555555555551,9.895138888888889)"><path class="outline" d="M -8.030555555555553 -9.895138888888889 C -8.030555555555553 -9.895138888888889 8.030555555555555 -9.895138888888889 8.030555555555555 -9.895138888888889 C 8.030555555555555 -9.895138888888889 8.030555555555555 9.895138888888887 8.030555555555555 9.895138888888887 C 8.030555555555555 9.895138888888887 -8.030555555555553 9.895138888888887 -8.030555555555553 9.895138888888887 C -8.030555555555553 9.895138888888887 -8.030555555555553 -9.895138888888889 -8.030555555555553 -9.895138888888889" stroke-width="0.01"></path></g></g><g fill="rgb(0,0,0)" stroke="none"><g transform="matrix(-1.6081226496766366e-16,-1,1,-1.6081226496766366e-16,12.493945814043204,3.0965510223765422)"><path class="fill" d="M -0.5395833333333321 -0.9347222222222231 C -0.5395833333333321 -0.9347222222222231 0.5395833333333352 -0.9347222222222231 0.5395833333333352 -0.9347222222222231 C 0.5395833333333352 -0.9347222222222231 0.5395833333333352 0.9347222222222216 0.5395833333333352 0.9347222222222216 C 0.5395833333333352 0.9347222222222216 -0.5395833333333321 0.9347222222222216 -0.5395833333333321 0.9347222222222216 C -0.5395833333333321 0.9347222222222216 -0.5395833333333321 -0.9347222222222231 -0.5395833333333321 -0.9347222222222231"></path></g></g><g fill="rgb(0,0,0)" stroke="none"><g transform="matrix(1,0,0,-1,7.9584117089530455,15.93326388888889)"><path class="fill" d="M 1.7097222222222208 0 C 1.7097222222222208 -0.24861111111111078 1.4861111111111094 -0.44861111111111124 1.2097222222222208 -0.44861111111111124 C 1.0958333333333312 -0.44861111111111124 0.9916666666666647 -0.41388888888888903 0.9069444444444438 -0.3569444444444447 C 0.9069444444444438 -0.3569444444444447 0.6930555555555552 -0.3569444444444447 0.6930555555555552 -0.3569444444444447 C 0.6097222222222218 -0.41388888888888903 0.504166666666666 -0.44861111111111124 0.39027777777777806 -0.44861111111111124 C 0.2763888888888886 -0.44861111111111124 0.1722222222222219 -0.41388888888888903 0.08750000000000094 -0.3569444444444447 C 0.08750000000000094 -0.3569444444444447 -0.08749999999999937 -0.3569444444444447 -0.08749999999999937 -0.3569444444444447 C -0.1708333333333327 -0.41388888888888903 -0.2763888888888886 -0.44861111111111124 -0.3902777777777765 -0.44861111111111124 C -0.504166666666666 -0.44861111111111124 -0.6083333333333327 -0.41388888888888903 -0.6930555555555536 -0.3569444444444447 C -0.6930555555555536 -0.3569444444444447 -0.9069444444444422 -0.3569444444444447 -0.9069444444444422 -0.3569444444444447 C -0.9902777777777756 -0.41388888888888903 -1.0958333333333314 -0.44861111111111124 -1.2097222222222201 -0.44861111111111124 C -1.4861111111111087 -0.44861111111111124 -1.7097222222222201 -0.24722222222222237 -1.7097222222222201 0 C -1.7097222222222201 0.24722222222222237 -1.4861111111111087 0.44861111111111124 -1.2097222222222201 0.44861111111111124 C -1.1069444444444427 0.44861111111111124 -1.0124999999999982 0.42083333333333345 -0.9333333333333308 0.37361111111111156 C -0.9333333333333308 0.37361111111111156 -0.6652777777777759 0.37361111111111156 -0.6652777777777759 0.37361111111111156 C -0.5861111111111086 0.42083333333333345 -0.49166666666666475 0.44861111111111124 -0.3888888888888873 0.44861111111111124 C -0.2861111111111098 0.44861111111111124 -0.19166666666666443 0.42083333333333345 -0.11249999999999873 0.37361111111111156 C -0.11249999999999873 0.37361111111111156 0.11388888888888793 0.37361111111111156 0.11388888888888793 0.37361111111111156 C 0.1930555555555552 0.42083333333333345 0.28749999999999903 0.44861111111111124 0.3902777777777765 0.44861111111111124 C 0.49305555555555397 0.44861111111111124 0.5874999999999994 0.42083333333333345 0.6666666666666651 0.37361111111111156 C 0.6666666666666651 0.37361111111111156 0.9333333333333323 0.37361111111111156 0.9333333333333323 0.37361111111111156 C 1.0124999999999997 0.42083333333333345 1.1069444444444434 0.44861111111111124 1.2097222222222208 0.44861111111111124 C 1.3124999999999982 0.44861111111111124 1.4069444444444437 0.42083333333333345 1.4861111111111094 0.37361111111111156 C 1.4861111111111094 0.37361111111111156 1.4874999999999987 0.37361111111111156 1.4874999999999987 0.37361111111111156 C 1.5624999999999984 0.3333333333333341 1.6263888888888876 0.28055555555555617 1.6472222222222208 0.21666666666666698 C 1.6874999999999982 0.1527777777777778 1.7097222222222208 0.07916666666666651 1.7097222222222208 0 C 1.7097222222222208 0 1.7097222222222208 0 1.7097222222222208 0"></path></g></g></g>
  </g>
</svg>