<svg width="16.02361111111111in" height="3.425194444444444in" viewBox="0 0 16.02361111111111 3.425194444444444" xmlns="http://www.w3.org/2000/svg" xmlnsXlink="http://www.w3.org/1999/xlink">
  <g transform="translate(0 3.425194444444444)">
    <g data-reactroot="" transform="scale(1, -1)"><g fill="none" stroke="rgb(0,0,0)"><g transform="matrix(1,0,0,-1,8.011805555555556,1.7125972222222217)"><path class="outline" d="M 7.381902777777778 -1.0826805555555556 C 7.381902777777778 -1.0826805555555556 7.381902777777778 -1.712597222222222 7.381902777777778 -1.712597222222222 C 7.381902777777778 -1.712597222222222 -7.381875 -1.712597222222222 -7.381875 -1.712597222222222 C -7.381875 -1.712597222222222 -7.381875 -1.0826805555555556 -7.381875 -1.0826805555555556 C -7.381875 -1.0826805555555556 -8.011805555555556 -1.0826805555555556 -8.011805555555556 -1.0826805555555556 C -8.011805555555556 -1.0826805555555556 -8.011805555555556 1.0826805555555556 -8.011805555555556 1.0826805555555556 C -8.011805555555556 1.0826805555555556 -7.381888888888888 1.0826805555555556 -7.381888888888888 1.0826805555555556 C -7.381888888888888 1.0826805555555556 -7.381888888888888 1.712597222222222 -7.381888888888888 1.712597222222222 C -7.381888888888888 1.712597222222222 7.381888888888887 1.712597222222222 7.381888888888887 1.712597222222222 C 7.381888888888887 1.712597222222222 7.381888888888887 1.0826805555555556 7.381888888888887 1.0826805555555556 C 7.381888888888887 1.0826805555555556 8.011805555555554 1.0826805555555556 8.011805555555554 1.0826805555555556 C 8.011805555555554 1.0826805555555556 8.011805555555554 -1.0826805555555556 8.011805555555554 -1.0826805555555556 C 8.011805555555554 -1.0826805555555556 7.381902777777778 -1.0826805555555556 7.381902777777778 -1.0826805555555556 C 7.381902777777778 -1.0826805555555556 7.381902777777778 -1.0826805555555556 7.381902777777778 -1.0826805555555556 M -7.106208333333333 -0.6617916666666667 C -7.2312361111111105 -0.6617916666666667 -7.332583333333333 -0.7631388888888888 -7.332583333333333 -0.8881666666666667 C -7.332583333333333 -1.0131944444444445 -7.2312361111111105 -1.1145416666666665 -7.106208333333333 -1.1145416666666665 C -6.9811805555555555 -1.1145416666666665 -6.879833333333332 -1.0131944444444445 -6.879833333333332 -0.8881666666666667 C -6.879833333333332 -0.7631388888888888 -6.9811805555555555 -0.6617916666666667 -7.106208333333333 -0.6617916666666667 C -7.106208333333333 -0.6617916666666667 -7.106208333333333 -0.6617916666666667 -7.106208333333333 -0.6617916666666667" stroke-width="0.01"></path></g></g></g>
  </g>
</svg>