<svg width="16.79in" height="20.317777777777824in" viewBox="0 0 16.79 20.317777777777824" xmlns="http://www.w3.org/2000/svg" xmlnsXlink="http://www.w3.org/1999/xlink">
  <g transform="translate(0 20.317777777777824)">
    <g data-reactroot="" transform="scale(1, -1)"><g fill="rgb(72,72,72)" stroke="none"><g transform="matrix(1,0,0,-1,1.5300425560529392,12.243491892726233)"><path class="fill" d="M 0 -0.5999722222222235 C 0.3313472222222224 -0.5999722222222235 0.5999722222222221 -0.33136111111111194 0.5999722222222221 -1.578983857244667e-15 C 0.5999722222222221 0.33134722222222024 0.33136111111111094 0.5999722222222204 -1.9737298215558337e-16 0.5999722222222204 C -0.3313611111111114 0.5999722222222204 -0.5999722222222225 0.33136111111110883 -0.5999722222222225 -1.578983857244667e-15 C -0.5999722222222222 -0.33134722222222335 -0.33136111111111116 -0.5999722222222235 0 -0.5999722222222235"></path></g></g><g fill="rgb(72,72,72)" stroke="none"><g transform="matrix(1,0,0,-1,2.785479284448001,12.243491892726233)"><path class="fill" d="M 0 -0.5999722222222235 C 0.3313472222222221 -0.5999722222222235 0.5999722222222222 -0.33136111111111194 0.5999722222222222 -1.578983857244667e-15 C 0.5999722222222222 0.33134722222222024 0.3313611111111111 0.5999722222222204 0 0.5999722222222204 C -0.3313611111111111 0.5999722222222204 -0.5999722222222222 0.33136111111110883 -0.5999722222222222 -1.578983857244667e-15 C -0.5999722222222222 -0.33134722222222335 -0.3313472222222221 -0.5999722222222235 0 -0.5999722222222235"></path></g></g><g fill="rgb(72,72,72)" stroke="none"><g transform="matrix(1,0,0,-1,9.630606020559112,12.243491892726233)"><path class="fill" d="M -1.578983857244667e-15 -0.5999722222222235 C 0.33134722222222024 -0.5999722222222235 0.5999722222222204 -0.33136111111111194 0.5999722222222204 -1.578983857244667e-15 C 0.5999722222222204 0.33134722222222024 0.33136111111110883 0.5999722222222204 -1.578983857244667e-15 0.5999722222222204 C -0.33136111111111194 0.5999722222222204 -0.5999722222222235 0.33136111111110883 -0.5999722222222235 -1.578983857244667e-15 C -0.5999722222222235 -0.33134722222222335 -0.33134722222222335 -0.5999722222222235 -1.578983857244667e-15 -0.5999722222222235"></path></g></g><g fill="rgb(72,72,72)" stroke="none"><g transform="matrix(1,0,0,-1,10.886056637843062,12.243491892726233)"><path class="fill" d="M 0 -0.5999722222222235 C 0.3313472222222218 -0.5999722222222235 0.5999722222222219 -0.33136111111111194 0.5999722222222219 -1.578983857244667e-15 C 0.5999722222222219 0.33134722222222024 0.3313611111111104 0.5999722222222204 0 0.5999722222222204 C -0.3313472222222218 0.5999722222222204 -0.5999722222222219 0.33136111111110883 -0.5999722222222219 -1.578983857244667e-15 C -0.5999722222222219 -0.33134722222222335 -0.33136111111111194 -0.5999722222222235 0 -0.5999722222222235"></path></g></g><g fill="rgb(72,72,72)" stroke="none"><g transform="matrix(1,0,0,-1,8.820662347719605,15.08847819673858)"><path class="fill" d="M 0 -0.5999722222222226 C 0.3313472222222218 -0.5999722222222226 0.5999722222222219 -0.3313611111111119 0.5999722222222219 -7.894919286223334e-16 C 0.5999722222222219 0.3313472222222218 0.3313611111111104 0.599972222222221 0 0.599972222222221 C -0.3313611111111104 0.599972222222221 -0.5999722222222219 0.33136111111111033 -0.5999722222222219 -7.894919286223334e-16 C -0.5999722222222219 -0.3313472222222225 -0.3313611111111104 -0.5999722222222226 0 -0.5999722222222226"></path></g></g><g fill="rgb(72,72,72)" stroke="none"><g transform="matrix(1,0,0,-1,7.5652117304356565,15.08847819673858)"><path class="fill" d="M -1.578983857244667e-15 -0.5999722222222226 C 0.33134722222222024 -0.5999722222222226 0.5999722222222204 -0.3313611111111119 0.5999722222222204 -7.894919286223334e-16 C 0.5999722222222204 0.3313472222222218 0.33136111111110883 0.599972222222221 -1.578983857244667e-15 0.599972222222221 C -0.33136111111111194 0.599972222222221 -0.5999722222222235 0.33136111111111033 -0.5999722222222235 -7.894919286223334e-16 C -0.5999583333333341 -0.3313472222222225 -0.33134722222222335 -0.5999722222222226 -1.578983857244667e-15 -0.5999722222222226"></path></g></g><g fill="rgb(0,0,0)" stroke="none"><g transform="matrix(1,0,0,-1,6.469062499999999,6.427519290123454)"><path class="fill" d="M 0 -0.08000000000000303 C 0.04418055555555531 -0.08000000000000303 0.07999999999999986 -0.04418055555555927 0.07999999999999986 -3.157967714489334e-15 C 0.07999999999999986 0.044180555555552954 0.04418055555555531 0.07999999999999671 0 0.07999999999999671 C -0.04418055555555531 0.07999999999999671 -0.07999999999999986 0.044180555555552954 -0.07999999999999986 -3.157967714489334e-15 C -0.07999999999999986 -0.04418055555555927 -0.04418055555555531 -0.08000000000000303 0 -0.08000000000000303"></path></g></g><g fill="rgb(0,0,0)" stroke="none"><g transform="matrix(1,0,0,-1,10.406062499999997,6.427519290123454)"><path class="fill" d="M -1.578983857244667e-15 -0.08000000000000303 C 0.04418055555555453 -0.08000000000000303 0.0799999999999983 -0.04418055555555927 0.0799999999999983 -3.157967714489334e-15 C 0.0799999999999983 0.044180555555552954 0.04418055555555453 0.07999999999999671 -1.578983857244667e-15 0.07999999999999671 C -0.04418055555555769 0.07999999999999671 -0.08000000000000144 0.044180555555552954 -0.08000000000000144 -3.157967714489334e-15 C -0.08000000000000144 -0.04418055555555927 -0.04418055555555769 -0.08000000000000303 -1.578983857244667e-15 -0.08000000000000303"></path></g></g><g fill="rgb(0,0,0)" stroke="none"><g transform="matrix(1,0,0,-1,6.469062499999998,2.4905192901234607)"><path class="fill" d="M 0 -0.07999999999999671 C 0.04418055555555531 -0.07999999999999671 0.07999999999999986 -0.044180555555552954 0.07999999999999986 3.157967714489334e-15 C 0.07999999999999986 0.04418055555555927 0.04418055555555531 0.08000000000000303 0 0.08000000000000303 C -0.04418055555555531 0.08000000000000303 -0.07999999999999986 0.04418055555555927 -0.07999999999999986 3.157967714489334e-15 C -0.07999999999999986 -0.044180555555552954 -0.04418055555555531 -0.07999999999999671 0 -0.07999999999999671"></path></g></g><g fill="rgb(0,0,0)" stroke="none"><g transform="matrix(1,0,0,-1,10.406062499999997,2.4905192901234607)"><path class="fill" d="M 0 -0.07999999999999671 C 0.044180555555556104 -0.07999999999999671 0.07999999999999986 -0.044180555555552954 0.07999999999999986 3.157967714489334e-15 C 0.07999999999999986 0.04418055555555927 0.044180555555556104 0.08000000000000303 0 0.08000000000000303 C -0.044180555555556104 0.08000000000000303 -0.07999999999999986 0.04418055555555927 -0.07999999999999986 3.157967714489334e-15 C -0.07999999999999986 -0.044180555555552954 -0.044180555555556104 -0.07999999999999671 0 -0.07999999999999671"></path></g></g><g fill="none" stroke="rgb(0,0,0)"><g transform="matrix(1,0,0,1,8.192943984547464,12.532327538631346)"><path class="outline" d="M 8.049999999999999 -3.75 C 8.049999999999999 -3.75 8.049999999999999 3.75 8.049999999999999 3.75 C 8.049999999999999 3.75 -8.05 3.75 -8.05 3.75 C -8.05 3.75 -8.05 -3.75 -8.05 -3.75 C -8.05 -3.75 8.049999999999999 -3.75 8.049999999999999 -3.75" stroke-width="0.01"></path></g></g><g fill="rgb(0,0,0)" stroke="none"><g transform="matrix(1,0,0,1,14.882324407215217,13.816300160587792)"><path class="fill" d="M 0 0.07849999999999903 C 0.043486111111112294 0.07849999999999903 0.07873611111111245 0.04334722222222116 0.07873611111111245 -7.894919286223335e-16 C 0.07873611111111245 -0.043347222222222745 0.043486111111112294 -0.0785000000000006 0 -0.0785000000000006 C -0.043486111111112294 -0.0785000000000006 -0.07873611111111245 -0.043347222222222745 -0.07873611111111245 -7.894919286223335e-16 C -0.07873611111111245 0.04334722222222116 -0.04348611111110914 0.07849999999999903 0 0.07849999999999903"></path></g></g><g fill="rgb(0,0,0)" stroke="none"><g transform="matrix(1,0,0,1,13.200324378280314,13.816300160587794)"><path class="fill" d="M 1.578983857244667e-15 0.07849999999999903 C 0.0434861111111123 0.07849999999999903 0.07873611111111245 0.04334722222222116 0.07873611111111245 -7.894919286223335e-16 C 0.07873611111111245 -0.043347222222222745 0.0434861111111123 -0.0785000000000006 1.578983857244667e-15 -0.0785000000000006 C -0.04348611111110914 -0.0785000000000006 -0.07873611111110929 -0.043347222222222745 -0.07873611111110929 -7.894919286223335e-16 C -0.07873611111110929 0.04334722222222116 -0.04348611111110914 0.07849999999999903 1.578983857244667e-15 0.07849999999999903"></path></g></g><g fill="rgb(0,0,0)" stroke="none"><g transform="matrix(1,0,0,1,14.882324407215501,10.670683646098762)"><path class="fill" d="M 0 0.07850000000000218 C 0.043486111111112294 0.07850000000000218 0.07873611111111245 0.043361111111113675 0.07873611111111245 1.578983857244667e-15 C 0.07873611111111245 -0.04336111111111051 0.043486111111112294 -0.07849999999999903 0 -0.07849999999999903 C -0.043486111111112294 -0.07849999999999903 -0.07873611111111245 -0.043347222222221954 -0.07873611111111245 1.578983857244667e-15 C -0.07873611111111245 0.04334722222222512 -0.04348611111110914 0.07850000000000218 0 0.07850000000000218"></path></g></g><g fill="rgb(0,0,0)" stroke="none"><g transform="matrix(1,0,0,1,13.200324378280314,10.670683646098764)"><path class="fill" d="M 1.578983857244667e-15 0.07850000000000218 C 0.0434861111111123 0.07850000000000218 0.07873611111111245 0.043361111111113675 0.07873611111111245 1.578983857244667e-15 C 0.07873611111111245 -0.04336111111111051 0.0434861111111123 -0.07849999999999903 1.578983857244667e-15 -0.07849999999999903 C -0.04348611111110914 -0.07849999999999903 -0.07873611111110929 -0.043347222222221954 -0.07873611111110929 1.578983857244667e-15 C -0.07873611111110929 0.04334722222222512 -0.04348611111110914 0.07850000000000218 1.578983857244667e-15 0.07850000000000218"></path></g></g><g fill="rgb(0,0,0)" stroke="none"><g transform="matrix(1,0,0,1,10.886056636725105,12.243491903343278)"><path class="fill" d="M 0 0.4750000000000006 C 0.2623333333333338 0.4750000000000006 0.4750000000000006 0.2623333333333338 0.4750000000000006 0 C 0.4750000000000006 -0.2623333333333338 0.2623333333333338 -0.4750000000000006 0 -0.4750000000000006 C -0.2623333333333338 -0.4750000000000006 -0.4750000000000006 -0.2623333333333338 -0.4750000000000006 0 C -0.4750000000000006 0.2623333333333338 -0.26234722222222234 0.4750000000000006 0 0.4750000000000006"></path></g></g><g fill="rgb(0,0,0)" stroke="none"><g transform="matrix(1,0,0,1,9.630606008724417,12.243491903343278)"><path class="fill" d="M -1.578983857244667e-15 0.4750000000000006 C 0.26233333333333225 0.4750000000000006 0.47499999999999903 0.2623333333333338 0.47499999999999903 0 C 0.47499999999999903 -0.2623333333333338 0.26233333333333225 -0.4750000000000006 -1.578983857244667e-15 -0.4750000000000006 C -0.26233333333333536 -0.4750000000000006 -0.4750000000000022 -0.2623333333333338 -0.4750000000000022 0 C -0.47500000000000064 0.2623333333333338 -0.26233333333333375 0.4750000000000006 -1.578983857244667e-15 0.4750000000000006"></path></g></g><g fill="rgb(0,0,0)" stroke="none"><g transform="matrix(1,0,0,1,14.041324387925378,12.243491903343276)"><path class="fill" d="M 0 0.3649027777777797 C 0.2015277777777776 0.3649027777777797 0.3649027777777781 0.20152777777777922 0.3649027777777781 1.578983857244667e-15 C 0.3649027777777781 -0.20152777777777606 0.2015277777777776 -0.3649027777777765 0 -0.3649027777777765 C -0.2015277777777776 -0.3649027777777765 -0.3649027777777781 -0.20152777777777606 -0.3649027777777781 1.578983857244667e-15 C -0.3649027777777781 0.20152777777777922 -0.2015277777777776 0.3649027777777797 0 0.3649027777777797"></path></g></g><g fill="rgb(0,0,0)" stroke="none"><g transform="matrix(1,0,0,1,6.7817749966359395,13.816300160587792)"><path class="fill" d="M 7.894919286223335e-16 0.07849999999999903 C 0.04348611111111151 0.07849999999999903 0.07873611111111166 0.04334722222222116 0.07873611111111166 -7.894919286223335e-16 C 0.07873611111111166 -0.043347222222222745 0.04348611111111151 -0.0785000000000006 7.894919286223335e-16 -0.0785000000000006 C -0.04348611111110993 -0.0785000000000006 -0.07873611111111008 -0.043347222222222745 -0.07873611111111008 -7.894919286223335e-16 C -0.07873611111111008 0.04334722222222116 -0.04348611111110993 0.07849999999999903 7.894919286223335e-16 0.07849999999999903"></path></g></g><g fill="rgb(0,0,0)" stroke="none"><g transform="matrix(1,0,0,1,5.099775015926064,13.816300160587792)"><path class="fill" d="M 0 0.07849999999999903 C 0.04348611111111072 0.07849999999999903 0.07873611111111087 0.04334722222222116 0.07873611111111087 -7.894919286223335e-16 C 0.07873611111111087 -0.043347222222222745 0.04348611111111072 -0.0785000000000006 0 -0.0785000000000006 C -0.04348611111111072 -0.0785000000000006 -0.07873611111111087 -0.043347222222222745 -0.07873611111111087 -7.894919286223335e-16 C -0.07873611111111087 0.04334722222222116 -0.04348611111111151 0.07849999999999903 0 0.07849999999999903"></path></g></g><g fill="rgb(0,0,0)" stroke="none"><g transform="matrix(1,0,0,1,6.781774996635939,10.670683646098766)"><path class="fill" d="M 7.894919286223335e-16 0.07850000000000218 C 0.04348611111111151 0.07850000000000218 0.07873611111111166 0.043361111111113675 0.07873611111111166 1.578983857244667e-15 C 0.07873611111111166 -0.04336111111111051 0.04348611111111151 -0.07849999999999903 7.894919286223335e-16 -0.07849999999999903 C -0.04348611111110993 -0.07849999999999903 -0.07873611111111008 -0.043347222222221954 -0.07873611111111008 1.578983857244667e-15 C -0.07873611111111008 0.04334722222222512 -0.04348611111110993 0.07850000000000218 7.894919286223335e-16 0.07850000000000218"></path></g></g><g fill="rgb(0,0,0)" stroke="none"><g transform="matrix(1,0,0,1,5.099775015926063,10.670683646098764)"><path class="fill" d="M 0 0.07850000000000218 C 0.04348611111111072 0.07850000000000218 0.07873611111111087 0.043361111111113675 0.07873611111111087 1.578983857244667e-15 C 0.07873611111111087 -0.04336111111111051 0.04348611111111072 -0.07849999999999903 0 -0.07849999999999903 C -0.04348611111111072 -0.07849999999999903 -0.07873611111111087 -0.043347222222221954 -0.07873611111111087 1.578983857244667e-15 C -0.07873611111111087 0.04334722222222512 -0.04348611111111151 0.07850000000000218 0 0.07850000000000218"></path></g></g><g fill="rgb(0,0,0)" stroke="none"><g transform="matrix(1,0,0,1,2.785479277435839,12.243491903343278)"><path class="fill" d="M 0 0.4750000000000006 C 0.2623333333333334 0.4750000000000006 0.4749999999999998 0.2623333333333338 0.4749999999999998 0 C 0.4749999999999998 -0.2623333333333338 0.262333333333333 -0.4750000000000006 0 -0.4750000000000006 C -0.262333333333333 -0.4750000000000006 -0.4749999999999998 -0.2623333333333338 -0.4749999999999998 0 C -0.4750000000000002 0.2623333333333338 -0.2623333333333334 0.4750000000000006 0 0.4750000000000006"></path></g></g><g fill="rgb(0,0,0)" stroke="none"><g transform="matrix(1,0,0,1,1.530042557614164,12.243491903343278)"><path class="fill" d="M -1.9737298215558337e-16 0.4750000000000006 C 0.262333333333333 0.4750000000000006 0.4749999999999998 0.2623333333333338 0.4749999999999998 0 C 0.4749999999999998 -0.2623333333333338 0.262333333333333 -0.4750000000000006 -1.9737298215558337e-16 -0.4750000000000006 C -0.2623333333333334 -0.4750000000000006 -0.4750000000000002 -0.2623333333333338 -0.4750000000000002 0 C -0.4750000000000002 0.2623333333333338 -0.26234722222222256 0.4750000000000006 -1.9737298215558337e-16 0.4750000000000006"></path></g></g><g fill="rgb(0,0,0)" stroke="none"><g transform="matrix(1,0,0,1,5.94077499663594,12.243491903343278)"><path class="fill" d="M 0 0.3649027777777797 C 0.2015277777777776 0.3649027777777797 0.3649027777777781 0.20152777777777922 0.3649027777777781 1.578983857244667e-15 C 0.3649027777777781 -0.20152777777777606 0.20152777777777842 -0.3649027777777765 0 -0.3649027777777765 C -0.20152777777777842 -0.3649027777777765 -0.3649027777777781 -0.20152777777777606 -0.3649027777777781 1.578983857244667e-15 C -0.3649027777777781 0.20152777777777922 -0.20152777777777842 0.3649027777777797 0 0.3649027777777797"></path></g></g><g fill="rgb(0,0,0)" stroke="none"><g transform="matrix(1,0,0,1,8.8206623444583,15.088478204676443)"><path class="fill" d="M 0 0.4750000000000006 C 0.2623333333333338 0.4750000000000006 0.4750000000000006 0.26233333333333375 0.4750000000000006 7.894919286223335e-16 C 0.4750000000000006 -0.2623333333333322 0.2623333333333338 -0.47499999999999903 0 -0.47499999999999903 C -0.2623333333333338 -0.47499999999999903 -0.4750000000000006 -0.2623333333333322 -0.4750000000000006 7.894919286223335e-16 C -0.4750000000000006 0.26233333333333375 -0.2623333333333338 0.4750000000000006 0 0.4750000000000006"></path></g></g><g fill="rgb(0,0,0)" stroke="none"><g transform="matrix(1,0,0,1,7.565211735747737,15.088478204676441)"><path class="fill" d="M 0 0.4750000000000006 C 0.2623333333333338 0.4750000000000006 0.4750000000000006 0.26233333333333375 0.4750000000000006 7.894919286223335e-16 C 0.4750000000000006 -0.2623333333333322 0.2623333333333338 -0.47499999999999903 0 -0.47499999999999903 C -0.2623333333333338 -0.47499999999999903 -0.4749999999999998 -0.2623333333333322 -0.4749999999999998 7.894919286223335e-16 C -0.47499999999999903 0.26233333333333375 -0.2623333333333322 0.4750000000000006 0 0.4750000000000006"></path></g></g><g fill="rgb(213,213,213)" stroke="none"><g transform="matrix(1,0,0,1,8.192930547803916,18.41777777777782)"><path class="fill" d="M 0 0.6360000000000005 C 0.35124999999999945 0.6360000000000005 0.6360000000000003 0.3512500000000003 0.6360000000000003 3.947459643111668e-16 C 0.6360000000000003 -0.3512499999999995 0.35125000000000106 -0.6359999999999997 0 -0.6359999999999997 C -0.35125000000000106 -0.6359999999999997 -0.6360000000000003 -0.3512499999999995 -0.6360000000000003 3.947459643111668e-16 C -0.6360000000000003 0.3512500000000003 -0.35125000000000106 0.6360000000000005 0 0.6360000000000005"></path></g></g><g fill="none" stroke="rgb(0,0,0)"><g transform="matrix(1,0,0,1,8.192944454089508,18.612222222222265)"><path class="outline" d="M -8.05 -1.7055555555555557 C -8.05 -1.7055555555555557 8.05 -1.7055555555555557 8.05 -1.7055555555555557 C 8.05 -1.7055555555555557 8.05 1.7055555555555553 8.05 1.7055555555555553 C 8.05 1.7055555555555553 -8.05 1.7055555555555553 -8.05 1.7055555555555553 C -8.05 1.7055555555555553 -8.05 -1.7055555555555557 -8.05 -1.7055555555555557" stroke-width="0.01"></path></g></g><g fill="rgb(0,0,0)" stroke="none"><g transform="matrix(1,0,0,1,8.192944444444446,18.417777777777818)"><path class="fill" d="M -1.5789838572446668e-15 0.5837500000000003 C 0.3224027777777757 0.5837500000000003 0.5837499999999979 0.3223888888888891 0.5837499999999979 3.9474596431116675e-16 C 0.5837499999999979 -0.32238888888888834 0.3223888888888871 -0.5837499999999995 -1.5789838572446668e-15 -0.5837499999999995 C -0.3223888888888902 -0.5837499999999995 -0.5837500000000011 -0.32240277777777726 -0.5837500000000011 3.9474596431116675e-16 C -0.5837500000000011 0.32240277777777804 -0.3224027777777788 0.5837500000000003 -1.5789838572446668e-15 0.5837500000000003"></path></g></g><g fill="none" stroke="rgb(0,0,0)"><g transform="matrix(1,0,0,-1,8.489999999999997,4.065458333333331)"><path class="outline" d="M -8.3 4.009444444444445 C -8.3 4.009444444444445 8.3 4.009444444444445 8.3 4.009444444444445 C 8.3 4.009444444444445 8.3 -4.009444444444443 8.3 -4.009444444444443 C 8.3 -4.009444444444443 -8.3 -4.009444444444443 -8.3 -4.009444444444443 C -8.3 -4.009444444444443 -8.3 4.009444444444445 -8.3 4.009444444444445 C -8.3 4.009444444444445 -8.3 4.009444444444445 -8.3 4.009444444444445" stroke-width="0.01"></path></g></g></g>
  </g>
</svg>