<?xml version="1.0" encoding="utf-8"?>
<!-- Generator: Adobe Illustrator 19.2.0, SVG Export Plug-In . SVG Version: 6.00 Build 0)  -->
<svg version="1.1" id="Layer_1" xmlns="http://www.w3.org/2000/svg" xmlns:xlink="http://www.w3.org/1999/xlink" x="0px" y="0px"
	 viewBox="0 0 1260.043 1828.457" style="enable-background:new 0 0 1260.043 1828.457;" xml:space="preserve">
<style type="text/css">
	.st0{fill:none;stroke:#000000;stroke-width:0.01;}
	.st1{fill:#949494;}
</style>
<g transform="translate(0 25.395240901031336)">
	<g transform="scale(1, -1)">
		<g>
			
				<g transform="matrix(0.0038764761963784853,-0.9999924864379226,0.9999924864379226,0.0038764761963784853,9.157070496497472,12.86317891210887)">
				<path class="st0" d="M1790.804,464.266l0.092-1.103l-0.009-1.2l-0.109-1.099l-0.208-1.098l-0.208-1.098l-0.408-1.097
					l-0.308-0.998l-0.508-0.996l-1.013-1.692L1554.643,44.482L87.085,55.86L-3.843,1136.099l-0.095,0.701l0.005,0.7l0.006,0.8
					l0.105,0.699l0.005,0.7l0.105,0.699l0.205,0.698l0.205,0.698l0.105,0.599l0.305,0.698l0.205,0.698l0.305,0.598l0.305,0.698
					l0.305,0.598l0.405,0.597l0.405,0.597l0.405,0.597l0.405,0.597l0.504,0.496l0.405,0.597l0.504,0.496l0.604,0.495l0.504,0.496
					l0.604,0.495l0.503,0.396l0.604,0.495l0.703,0.395l0.603,0.395l0.703,0.395l0.602,0.295l0.703,0.395l0.702,0.295l1.203,0.391
					l1.203,0.391l259.723,92.289l1.805,0.586l1.102,0.291l1.202,0.291l1.302,0.29l1.201,0.091l0.901,0.093l0.8-0.006l0.8-0.006
					l0.9-0.007l0.799-0.106l0.799-0.106l0.799-0.106l0.799-0.106l0.798-0.206l0.798-0.206l0.698-0.205l0.798-0.306l0.698-0.305
					l0.698-0.305l0.698-0.305l0.697-0.405l0.698-0.305l0.597-0.405l0.596-0.505l0.597-0.405l0.596-0.505l0.597-0.405l0.595-0.605
					l0.496-0.504l0.496-0.504l0.495-0.604l0.395-0.603l0.395-0.603l0.395-0.603l0.395-0.603l0.395-0.603l0.295-0.702l0.295-0.702
					l0.294-0.802l0.194-0.802l0.194-0.802l95.34-291.848l30.283-92.638l2.674-3.321l2.774-3.422l2.775-3.222l2.774-3.322
					l2.874-3.322l2.775-3.222l2.875-3.222l2.874-3.322l2.876-3.122l2.875-3.222l2.875-3.222l2.876-3.122l2.976-3.123l2.976-3.123
					l2.976-3.123l2.976-3.123l2.976-3.123l3.077-3.024l2.977-3.023l3.077-3.024l3.077-3.024l3.077-3.024l3.077-2.924l3.177-2.925
					l3.077-2.924l3.177-2.925l3.177-2.925l3.177-2.925l3.178-2.825l3.277-2.925l3.178-2.825l3.279-2.725l3.178-2.825l3.278-2.825
					l6.658-5.452l6.558-5.451l6.759-5.353l6.759-5.353l6.759-5.253l6.86-5.153l6.961-5.054l6.962-4.954l7.062-4.955l7.063-4.855
					l7.163-4.856l7.164-4.656l7.164-4.656l7.364-4.657l7.266-4.456l7.366-4.457l7.466-4.358l7.467-4.258l7.467-4.258l7.568-4.159
					l7.669-4.06l7.67-3.96l7.67-3.96l7.77-3.86l7.771-3.76l7.772-3.66l7.872-3.661l7.873-3.461l7.973-3.562l7.974-3.362l7.974-3.362
					l8.076-3.163l8.076-3.163l8.176-3.163l8.077-2.963l8.277-2.964l8.178-2.863l8.279-2.764l8.279-2.764l8.28-2.664l8.38-2.565
					l8.381-2.465l8.382-2.365l8.482-2.366l8.383-2.265l8.483-2.166l8.584-2.067l8.485-1.966l8.585-1.967l8.586-1.867l8.587-1.767
					l8.687-1.767l8.688-1.567l8.588-1.567l8.789-1.468l8.69-1.367l8.69-1.267l8.79-1.268l8.791-1.168l8.792-1.068l8.793-0.968
					l8.794-0.868l8.794-0.868l8.894-0.769l8.896-0.569l8.795-0.668l8.897-0.469l8.897-0.369l8.897-0.369l8.898-0.269l8.999-0.17
					l8.9-0.069l8.901,0.031l9,0.03l8.901,0.131l9.002,0.23l9.003,0.33l8.904,0.431l9.004,0.53l8.904,0.531l9.005,0.63l9.006,0.73
					l9.007,0.83l8.907,0.931l9.008,1.03l8.908,1.031l9.01,1.23l9.01,1.23l8.911,1.331l9.011,1.43l8.911,1.431l8.913,1.631
					l9.014,1.73l8.914,1.731l8.914,1.831l8.915,1.931l8.916,2.031l8.917,2.131l8.817,2.132l8.918,2.331l8.818,2.332l8.819,2.432
					l8.92,2.531l8.721,2.632l8.822,2.732l8.822,2.832l8.723,2.932l8.823,2.932l8.724,3.032l8.725,3.232l8.625,3.233l1.204,0.491
					l1.103,0.391l1.303,0.39l1.202,0.291l1.302,0.19l1.302,0.19l1.3-0.01l1.301,0.09l1.199-0.109l1.199-0.109l1.198-0.209
					l1.198-0.309l1.198-0.309l1.097-0.409l0,0l0.2-0.002l0.199-0.102l0.099-0.101l0.1-0.001l0,0l0.199-0.102l0.2-0.002l0.199-0.102
					l0.299-0.102l0.499-0.204l0.698-0.305l0.698-0.305l0.798-0.306l0.898-0.307l0.897-0.407l1.097-0.409l1.096-0.509l1.197-0.409
					l1.296-0.51l1.296-0.51l1.395-0.611l1.495-0.612l1.595-0.612l1.595-0.612l1.694-0.713l1.694-0.713l1.795-0.714l1.895-0.715
					l1.894-0.815l1.995-0.716l2.094-0.816l2.093-0.916l2.194-0.817l2.193-0.917l2.293-0.918l2.293-0.918l2.393-0.919l2.393-0.919
					l2.492-1.019l2.492-1.019l2.492-1.019l2.592-1.02l2.692-1.021l2.691-1.121l2.692-1.021l2.791-1.122l2.792-1.122l2.791-1.122
					l2.891-1.222l2.891-1.122l2.891-1.122l2.991-1.223l2.991-1.223l2.991-1.123l3.091-1.224l2.991-1.223l3.091-1.224l6.28-2.549
					l6.281-2.549l6.48-2.55l6.38-2.55l6.48-2.55l6.58-2.651l6.58-2.651l13.16-5.202l13.159-5.302l6.48-2.55l6.58-2.651l6.38-2.55
					l6.38-2.549l6.38-2.55l6.281-2.449l3.09-1.324l2.991-1.223l3.091-1.124l2.991-1.223l2.991-1.223l2.991-1.223l2.891-1.122
					l2.891-1.122l2.891-1.222l2.891-1.122l2.791-1.122l2.691-1.121l2.792-1.022l2.691-1.121l2.592-1.02l2.592-1.02l2.592-1.02
					l2.492-1.019l2.492-1.019l2.393-0.919l2.392-1.019l2.293-0.918l2.293-0.918l2.194-0.817l2.193-0.917l2.094-0.816l2.094-0.816
					l1.994-0.815l1.895-0.715l1.894-0.815l1.795-0.714l1.795-0.714l1.695-0.613l1.594-0.712l1.595-0.612l1.495-0.612l1.396-0.511
					l1.295-0.61l1.296-0.51l1.197-0.409l1.196-0.509l0.997-0.408l0.997-0.408l0.898-0.307l1.197-0.409l1.097-0.409l1.097-0.409
					l0.996-0.508l0.995-0.608l0.995-0.608l0.895-0.607l0.795-0.706l0.794-0.806l0.794-0.806l0.694-0.805l0.693-0.905l0.593-0.905
					l0.493-0.904l0.492-1.004l0.392-1.003l0.392-1.003l0.292-1.102l0.192-1.002L1790.804,464.266"/>
			</g>
		</g>
		<g>
			
				<g transform="matrix(0.0038764761963784853,-0.9999924864379226,0.9999924864379226,0.0038764761963784853,13.155300884083104,14.760574523361464)">
				<path class="st1" d="M492.848,485.43L492.848,485.43c-3.208-0.975-5.134-4.36-4.159-7.568c0.975-3.208,4.361-5.034,7.569-4.059
					l499.104-272.378c0.975-3.208,4.361-5.034,7.569-4.059c3.208,0.975,5.034,4.361,4.059,7.569l11.137,18.722
					c3.208,0.975,5.034,4.361,4.059,7.569s-4.361,5.034-7.569,4.059L515.613,507.662c-0.975,3.208-4.361,5.034-7.569,4.059
					c-3.208-0.975-5.034-4.361-4.059-7.569L492.848,485.43"/>
			</g>
		</g>
		<g>
			
				<g transform="matrix(0.0038764761963784853,-0.9999924864379226,0.9999924864379226,0.0038764761963784853,4.701464882437355,22.182903919074366)">
				<path class="st1" d="M60.515,1130.293L60.515,1130.293c-1.424-3.089-0.152-6.699,2.838-8.022l6.459-18.151l0,0
					c-1.524-3.088-0.152-6.699,2.837-8.122c3.088-1.524,6.699-0.152,8.122,2.837l154.831,55.001l130.126-397.021l0,0
					c-1.523-2.988-0.351-6.597,2.637-8.121c2.988-1.523,6.598-0.351,8.121,2.637l18.047,5.96c2.988-1.523,6.598-0.351,8.121,2.637
					c1.523,2.988,0.351,6.597-2.637,8.121l-138.923,423.29c1.523,2.988,0.351,6.597-2.637,8.121
					c-2.988,1.523-6.597,0.351-8.121-2.637l-25.867-8.5l-0.098,0.201l-155.834-55.394
					C65.549,1134.554,61.939,1133.282,60.515,1130.293"/>
			</g>
		</g>
		<g>
			
				<g transform="matrix(0.0038764761963784853,-0.9999924864379226,0.9999924864379226,0.0038764761963784853,9.738657799512163,23.884173281457425)">
				<path class="st1" d="M140.89,130.808L140.89,130.808l27.619,2.386l-79.491,943.145l0,0c2.119,2.484,1.85,6.386-0.734,8.506
					c-2.484,2.119-6.386,1.85-8.506-0.734l-19.113-1.652c-2.484,2.119-6.386,1.85-8.506-0.734c-2.119-2.484-1.85-6.386,0.734-8.506
					L131.65,138.58l0,0c-2.119-2.484-1.75-6.387,0.734-8.506C134.867,127.955,138.769,128.225,140.89,130.808"/>
			</g>
		</g>
		<g>
			
				<g transform="matrix(0.0038764761963784853,-0.9999924864379226,0.9999924864379226,0.0038764761963784853,16.603435745011137,13.994398204112317)">
				<path class="st1" d="M1457.158,77.899L1457.158,77.899c2.417,2.28,2.447,6.181,0.067,8.6l0.249,19.199
					c2.318,2.282,2.347,6.082,0.066,8.5c-2.381,2.419-6.18,2.548-8.599,0.167L171.216,129.271l0,0
					c-2.382,2.319-6.181,2.448-8.6,0.067c-2.319-2.382-2.448-6.181-0.067-8.6l-0.249-19.199c-2.319-2.382-2.448-6.181-0.067-8.6
					c2.382-2.319,6.181-2.448,8.6-0.067l1277.724-14.907C1450.94,75.647,1454.739,75.518,1457.158,77.899"/>
			</g>
		</g>
		<g>
			
				<g transform="matrix(0.0038764761963784853,-0.9999924864379226,0.9999924864379226,0.0038764761963784853,12.782167969720419,5.500188246279019)">
				<path class="st1" d="M1485.005,472.083L1485.005,472.083c3.208,0.975,5.134,4.36,3.959,7.57
					c-0.975,3.208-4.361,5.034-7.569,4.059l-16.929,9.232c-0.975,3.208-4.361,5.034-7.569,4.059
					c-3.208-0.975-5.034-4.361-4.059-7.569l-109.762-201.055c-3.208-0.975-5.034-4.361-4.059-7.569
					c0.975-3.208,4.361-5.034,7.569-4.059l16.929-9.232c0.975-3.208,4.361-5.034,7.569-4.059c3.308,0.974,5.134,4.36,4.159,7.568
					L1485.005,472.083L1485.005,472.083"/>
			</g>
		</g>
		<g>
			
				<g transform="matrix(0.0038764761963784853,-0.9999924864379226,0.9999924864379226,0.0038764761963784853,14.527763772894572,3.056841262892898)">
				<path class="st1" d="M1681.416,387.102L1681.416,387.102c3.208,0.975,5.033,4.262,4.058,7.469
					c-0.975,3.208-4.361,5.034-7.569,4.059l-16.929,9.232c-0.975,3.208-4.361,5.034-7.569,4.059
					c-3.208-0.975-5.034-4.361-4.059-7.569l-156.73-287.094c-3.208-0.975-5.034-4.361-4.059-7.569
					c0.975-3.208,4.361-5.034,7.569-4.059l16.929-9.231c0.975-3.208,4.361-5.034,7.569-4.059c3.208,0.975,5.034,4.361,4.059,7.569
					L1681.416,387.102L1681.416,387.102"/>
			</g>
		</g>
		<path class="st1" d="M401.055-724.017"/>
		<path class="st1" d="M508.171-525.954"/>
	</g>
</g>
</svg>
