<?xml version="1.0" encoding="utf-8"?>
<!-- Generator: Adobe Illustrator 19.2.0, SVG Export Plug-In . SVG Version: 6.00 Build 0)  -->
<svg version="1.1" id="Layer_1" xmlns="http://www.w3.org/2000/svg" xmlns:xlink="http://www.w3.org/1999/xlink" x="0px" y="0px"
	 viewBox="0 0 1260.043 1828.457" style="enable-background:new 0 0 1260.043 1828.457;" xml:space="preserve">
<style type="text/css">
	.st0{fill:none;stroke:#000000;stroke-width:0.01;}
	.st1{fill:#949494;}
</style>
<g transform="translate(0 25.395240901031336)">
	<g transform="scale(1, -1)">
		<g>
			
				<g transform="matrix(0.0038764761963784853,-0.9999924864379226,0.9999924864379226,0.0038764761963784853,9.157070496497472,12.86317891210887)">
				<path class="st0" d="M1792.191,822.349l-0.1-1.2l-0.2-1l-0.3-1.1l-0.4-1l-0.4-1l-0.5-1l-0.5-0.9l-0.6-0.9l-0.7-0.9l-0.7-0.8
					l-0.8-0.8l-0.8-0.8l-0.8-0.7l-0.9-0.6l-1-0.6l-1-0.6l-1-0.5l-1.1-0.4l-1.1-0.4l-1.2-0.4l-0.9-0.3l-1-0.4l-1-0.4l-1.2-0.5
					l-1.2-0.4l-1.3-0.5l-1.3-0.6l-1.4-0.5l-1.5-0.6l-1.6-0.6l-1.6-0.7l-1.7-0.6l-1.8-0.7l-1.8-0.7l-1.9-0.8l-1.9-0.7l-2-0.8
					l-2.1-0.8l-2.1-0.8l-2.2-0.9l-2.2-0.8l-2.3-0.9l-2.3-0.9l-2.4-1l-2.4-0.9l-2.5-1l-2.5-1l-2.6-1l-2.6-1l-2.6-1l-2.7-1.1l-2.8-1
					l-2.7-1.1l-2.8-1.1l-2.9-1.1l-2.9-1.2l-2.9-1.1l-2.9-1.1l-3-1.2l-3-1.2l-3-1.2l-3.1-1.1l-3-1.2l-3.1-1.3l-6.3-2.4l-6.4-2.5
					l-6.4-2.5l-6.4-2.5l-6.6-2.6l-6.5-2.5l-13.2-5.2l-13.2-5.1l-6.6-2.6l-6.6-2.6l-6.5-2.5l-6.4-2.5l-6.5-2.5l-6.3-2.5l-6.3-2.5
					l-3.1-1.2l-3-1.2l-3.1-1.2l-3-1.1l-3-1.2l-3-1.2l-2.9-1.1l-2.9-1.1l-2.9-1.2l-2.8-1.1l-2.8-1.1l-2.8-1.1l-2.7-1l-2.7-1.1l-2.7-1
					l-2.6-1l-2.5-1l-2.5-1l-2.5-1l-2.4-0.9l-2.4-0.9l-2.3-0.9l-2.3-0.9l-2.2-0.9l-2.2-0.8l-2.1-0.9l-2.1-0.8l-2-0.7l-1.9-0.8
					l-1.9-0.7l-1.8-0.7l-1.7-0.7l-1.7-0.7l-1.6-0.6l-1.6-0.6l-1.5-0.6l-1.4-0.6l-1.3-0.5l-1.3-0.5l-1.2-0.4l-1.1-0.5l-1.1-0.4
					l-0.9-0.4l-0.9-0.3l-0.8-0.3l-0.7-0.3l-0.7-0.3l-0.5-0.2l-0.3-0.1l-0.2-0.1h-0.2l-0.2-0.1l0,0h-0.1l-0.1-0.1l-0.2-0.1h-0.2l0,0
					l-1.1-0.4l-1.2-0.3l-1.2-0.3l-1.2-0.2l-1.2-0.1l-1.2-0.1l-1.3,0.1h-1.3l-1.3,0.2l-1.3,0.2l-1.2,0.3l-1.3,0.4l-1.1,0.4l-1.2,0.5
					l-8.6,3.3l-8.7,3.3l-8.7,3.1l-8.8,3l-8.7,3l-8.8,2.9l-8.8,2.8l-8.7,2.7l-8.9,2.6l-8.8,2.5l-8.8,2.4l-8.9,2.4l-8.8,2.2l-8.9,2.2
					l-8.9,2.1l-8.9,2l-8.9,1.9l-8.9,1.8l-9,1.8l-8.9,1.7l-8.9,1.5l-9,1.5l-8.9,1.4l-9,1.3l-9,1.3l-8.9,1.1l-9,1.1l-8.9,1l-9,0.9
					l-9,0.8l-9,0.7l-8.9,0.6l-9,0.6l-8.9,0.5l-9,0.4l-9,0.3l-8.9,0.2l-9,0.1l-8.9,0.1h-8.9l-9-0.1l-8.9-0.2l-8.9-0.3l-8.9-0.3
					l-8.9-0.4l-8.8-0.6l-8.9-0.5l-8.9-0.7l-8.8-0.8l-8.8-0.8l-8.8-0.9l-8.8-1l-8.8-1.1l-8.8-1.2l-8.7-1.2l-8.7-1.3l-8.8-1.4
					l-8.6-1.5l-8.7-1.5l-8.7-1.7l-8.6-1.7l-8.6-1.8l-8.6-1.9l-8.5-1.9l-8.6-2l-8.5-2.1l-8.4-2.2l-8.5-2.3l-8.4-2.3l-8.4-2.4
					l-8.4-2.5l-8.3-2.6l-8.3-2.7l-8.3-2.7l-8.2-2.8l-8.3-2.9l-8.1-2.9l-8.2-3.1l-8.1-3.1l-8.1-3.1l-8-3.3l-8-3.3l-8-3.5l-7.9-3.4
					l-7.9-3.6l-7.8-3.6l-7.8-3.7l-7.8-3.8l-7.7-3.9l-7.7-3.9l-7.7-4l-7.6-4.1l-7.5-4.2l-7.5-4.2l-7.5-4.3l-7.4-4.4l-7.3-4.4
					l-7.4-4.6l-7.2-4.6l-7.2-4.6l-7.2-4.8l-7.1-4.8l-7.1-4.9l-7-4.9l-7-5l-6.9-5.1l-6.8-5.2l-6.8-5.3l-6.8-5.3l-6.6-5.4l-6.7-5.4
					l-3.3-2.8l-3.2-2.8l-3.3-2.7l-3.2-2.8l-3.3-2.9l-3.2-2.8l-3.2-2.9l-3.2-2.9l-3.2-2.9l-3.1-2.9l-3.2-2.9l-3.1-2.9l-3.1-3l-3.1-3
					l-3.1-3l-3-3l-3.1-3l-3-3.1l-3-3.1l-3-3.1l-3-3.1l-3-3.1l-2.9-3.1l-2.9-3.2l-2.9-3.2l-2.9-3.1l-2.9-3.3l-2.9-3.2l-2.8-3.2
					l-2.9-3.3l-2.8-3.3l-2.8-3.2l-2.8-3.4l-2.7-3.3l-31-92.4l-97.6-291.1l-0.2-0.8l-0.2-0.8l-0.3-0.8l-0.3-0.7l-0.3-0.7l-0.4-0.6
					l-0.4-0.6l-0.4-0.6l-0.4-0.6l-0.4-0.6l-0.5-0.6l-0.5-0.5l-0.5-0.5l-0.6-0.6l-0.6-0.4l-0.6-0.5l-0.6-0.4l-0.6-0.5l-0.6-0.4
					l-0.7-0.3l-0.7-0.4l-0.7-0.3l-0.7-0.3l-0.7-0.3l-0.8-0.3l-0.7-0.2l-0.8-0.2l-0.8-0.2l-0.8-0.1l-0.8-0.1l-0.8-0.1l-0.8-0.1h-0.9
					h-0.8h-0.8l-0.9,0.1l-1.2,0.1l-1.3,0.3l-1.2,0.3l-1.1,0.3l-1.8,0.6l-259,94.3l-1.2,0.4l-1.2,0.4l-0.7,0.3l-0.7,0.4l-0.6,0.3
					l-0.7,0.4l-0.6,0.4l-0.7,0.4l-0.6,0.5l-0.5,0.4l-0.6,0.5l-0.5,0.5l-0.6,0.5l-0.5,0.5l-0.4,0.6l-0.5,0.5l-0.4,0.6l-0.4,0.6
					l-0.4,0.6l-0.4,0.6l-0.3,0.6l-0.3,0.7l-0.3,0.6l-0.2,0.7l-0.3,0.7l-0.1,0.6l-0.2,0.7l-0.2,0.7l-0.1,0.7l0,0.7l-0.1,0.7v0.8
					l0,0.7l0.1,0.7l99.3,1079.501l1467.601,0.001l230.3-411.2l1-1.7l0.5-1l0.3-1l0.4-1.1l0.2-1.1l0.2-1.1l0.1-1.1v-1.2
					L1792.191,822.349"/>
			</g>
		</g>
		<g>
			
				<g transform="matrix(0.0038764761963784853,-0.9999924864379226,0.9999924864379226,0.0038764761963784853,13.155300884083104,14.760574523361464)">
				<path class="st1" d="M494.08,803.251l10.992-18.808c-1-3.2,0.8-6.6,4-7.6s6.6,0.8,7.6,4l501.1,268.5c3.2-1,6.6,0.8,7.6,4
					s-0.8,6.6-4,7.6l-10.992,18.808c1,3.2-0.8,6.6-4,7.6c-3.2,1-6.6-0.8-7.6-4l-501.2-268.5c-3.2,1-6.6-0.8-7.6-4
					S490.88,804.251,494.08,803.251L494.08,803.251"/>
			</g>
		</g>
		<g>
			
				<g transform="matrix(0.0038764761963784853,-0.9999924864379226,0.9999924864379226,0.0038764761963784853,4.701464882437355,22.182903919074366)">
				<path class="st1" d="M56.827,178.667c1.4-3,5-4.3,8-2.9l155.4-56.6l0.1,0.2l25.8-8.7c1.5-3,5.1-4.2,8.1-2.7
					c3,1.5,4.2,5.1,2.7,8.1l142.2,422.2c3,1.5,4.2,5.1,2.7,8.1s-5.1,4.2-8.1,2.7l-18,6.1c-1.5,3-5.1,4.2-8.1,2.7s-4.2-5.1-2.7-8.1
					l0,0l-133.2-396l-154.4,56.2c-1.4,3-5,4.4-8.1,2.9c-3-1.4-4.4-5-2.9-8.1l0,0l-6.6-18.1
					C56.727,185.367,55.427,181.767,56.827,178.667L56.827,178.667"/>
			</g>
		</g>
		<g>
			
				<g transform="matrix(0.0038764761963784853,-0.9999924864379226,0.9999924864379226,0.0038764761963784853,9.738657799512163,23.884173281457425)">
				<path class="st1" d="M144.908,1167.424c-2.1,2.6-6,2.9-8.5,0.8s-2.9-6-0.8-8.5l0,0l-86-934c-2.6-2.1-2.9-6-0.8-8.5
					c2.1-2.6,6-2.9,8.5-0.8l19.1-1.8c2.1-2.6,6-2.9,8.5-0.8c2.6,2.1,2.9,6,0.8,8.5l0,0l86.8,942.5L144.908,1167.424
					L144.908,1167.424"/>
			</g>
		</g>
		<g>
			
				<g transform="matrix(0.0038764761963784853,-0.9999924864379226,0.9999924864379226,0.0038764761963784853,16.603435745011137,13.994398204112317)">
				<path class="st1" d="M1461.493,1196.398c-2.4,2.4-6.2,2.3-8.6,0l-1277.801-5.001c-2.4,2.4-6.2,2.3-8.6,0c-2.4-2.4-2.3-6.2,0-8.6
					l0.1-19.2c-2.4-2.4-2.3-6.2,0-8.6c2.4-2.4,6.2-2.3,8.6,0l0,0l1277.801,5.001c2.4-2.4,6.2-2.3,8.6,0.1c2.3,2.4,2.3,6.2,0,8.5
					l-0.1,19.2C1463.892,1190.198,1463.892,1194.099,1461.493,1196.398L1461.493,1196.398"/>
			</g>
		</g>
		<g>
			
				<g transform="matrix(0.0038764761963784853,-0.9999924864379226,0.9999924864379226,0.0038764761963784853,12.782167969720419,5.500188246279019)">
				<path class="st1" d="M1486.313,809.653L1486.313,809.653l-108.2,201.9c1,3.2-0.8,6.6-4.1,7.6c-3.2,1-6.6-0.8-7.6-4l-17-9.1
					c-3.2,1-6.6-0.8-7.6-4s0.8-6.6,4-7.6l108.2-201.9c-1-3.2,0.8-6.6,4-7.6c3.2-1,6.6,0.8,7.6,4l17,9.1c3.2-1,6.6,0.8,7.6,4
					C1491.413,805.253,1489.513,808.653,1486.313,809.653L1486.313,809.653"/>
			</g>
		</g>
		<g>
			
				<g transform="matrix(0.0038764761963784853,-0.9999924864379226,0.9999924864379226,0.0038764761963784853,14.527763772894572,3.056841262892898)">
				<path class="st1" d="M1683.363,889.617L1683.363,889.617l-154.5,288.4c1,3.2-0.8,6.6-4,7.6c-3.2,1-6.6-0.8-7.6-4l-17-9.1
					c-3.2,1-6.6-0.8-7.6-4c-1-3.2,0.8-6.6,4-7.6l154.5-288.3c-1-3.2,0.8-6.6,4-7.6c3.2-1,6.6,0.8,7.6,4l17,9.1c3.2-1,6.6,0.8,7.6,4
					C1688.363,885.316,1686.563,888.617,1683.363,889.617L1683.363,889.617"/>
			</g>
		</g>
		<path class="st1" d="M917.753-724.017"/>
		<path class="st1" d="M810.637-525.954"/>
	</g>
</g>
</svg>
