<svg width="16.100000000000005in" height="25.349078765846333in" viewBox="0 0 16.100000000000005 25.349078765846333" xmlns="http://www.w3.org/2000/svg" xmlnsXlink="http://www.w3.org/1999/xlink">
  <g transform="translate(0 25.349078765846333)">
    <g data-reactroot="" transform="scale(1, -1)"><g fill="none" stroke="rgb(0,0,0)"><g transform="matrix(1,0,0,1,8.050000000000002,7.094999999999999)"><path class="outline" d="M -8.05 -7.094999999999999 C -8.05 -7.094999999999999 8.05 -7.094999999999999 8.05 -7.094999999999999 C 8.05 -7.094999999999999 8.05 7.094999999999999 8.05 7.094999999999999 C 8.05 7.094999999999999 -8.05 7.094999999999999 -8.05 7.094999999999999 C -8.05 7.094999999999999 -8.05 -7.094999999999999 -8.05 -7.094999999999999" stroke-width="0.01"></path></g></g><g fill="none" stroke="rgb(0,0,0)"><g transform="matrix(1,0,0,1,8.050000000000002,23.12466904362411)"><path class="outline" d="M -8.05 -2.224409722222222 C -8.05 -2.224409722222222 8.05 -2.224409722222222 8.05 -2.224409722222222 C 8.05 -2.224409722222222 8.05 2.224409722222222 8.05 2.224409722222222 C 8.05 2.224409722222222 -8.05 2.224409722222222 -8.05 2.224409722222222 C -8.05 2.224409722222222 -8.05 -2.224409722222222 -8.05 -2.224409722222222" stroke-width="0.01"></path></g></g><g fill="none" stroke="rgb(0,0,0)"><g transform="matrix(1,0,0,1,8.050000000000002,17.5675023769575)"><path class="outline" d="M -8.05 -2.9724375 C -8.05 -2.9724375 8.05 -2.9724375 8.05 -2.9724375 C 8.05 -2.9724375 8.05 2.9724375 8.05 2.9724375 C 8.05 2.9724375 -8.05 2.9724375 -8.05 2.9724375 C -8.05 2.9724375 -8.05 -2.9724375 -8.05 -2.9724375" stroke-width="0.01"></path></g></g></g>
  </g>
</svg>